<mxfile host="app.diagrams.net" modified="2023-12-21T10:29:18.587Z" agent="Mozilla/5.0 (Windows NT 10.0; Win64; x64) AppleWebKit/537.36 (KHTML, like Gecko) Chrome/118.0.5993.771 YaBrowser/23.11.2.771 Yowser/2.5 Safari/537.36" etag="T0D4doXuDfhXUIKSkj9d" version="22.1.11" type="github">
  <diagram name="Страница — 1" id="gmWEUmx179RuSUwTUEAq">
    <mxGraphModel dx="1542" dy="885" grid="1" gridSize="10" guides="1" tooltips="1" connect="1" arrows="1" fold="1" page="1" pageScale="1" pageWidth="827" pageHeight="1169" math="0" shadow="0">
      <root>
        <mxCell id="0" />
        <mxCell id="1" parent="0" />
        <mxCell id="ACFp6LXwnmqYwiIo9wma-1" value="Работник" style="shape=umlActor;verticalLabelPosition=bottom;verticalAlign=top;html=1;outlineConnect=0;" vertex="1" parent="1">
          <mxGeometry x="120" y="350" width="30" height="60" as="geometry" />
        </mxCell>
        <mxCell id="ACFp6LXwnmqYwiIo9wma-3" value="Войти в систему" style="ellipse;whiteSpace=wrap;html=1;" vertex="1" parent="1">
          <mxGeometry x="320" y="360" width="90" height="60" as="geometry" />
        </mxCell>
        <mxCell id="ACFp6LXwnmqYwiIo9wma-4" value="&lt;font style=&quot;font-size: 9px;&quot;&gt;Зарегистрироваться&lt;/font&gt;" style="ellipse;whiteSpace=wrap;html=1;" vertex="1" parent="1">
          <mxGeometry x="310" y="460" width="90" height="50" as="geometry" />
        </mxCell>
        <mxCell id="ACFp6LXwnmqYwiIo9wma-5" value="Добавить новый фильм" style="ellipse;whiteSpace=wrap;html=1;" vertex="1" parent="1">
          <mxGeometry x="410" y="230" width="100" height="60" as="geometry" />
        </mxCell>
        <mxCell id="ACFp6LXwnmqYwiIo9wma-6" value="Отредактировать данные о фильме" style="ellipse;whiteSpace=wrap;html=1;" vertex="1" parent="1">
          <mxGeometry x="480" y="330" width="110" height="80" as="geometry" />
        </mxCell>
        <mxCell id="ACFp6LXwnmqYwiIo9wma-7" value="Продать клиенту билет" style="ellipse;whiteSpace=wrap;html=1;" vertex="1" parent="1">
          <mxGeometry x="399" y="590" width="90" height="60" as="geometry" />
        </mxCell>
        <mxCell id="ACFp6LXwnmqYwiIo9wma-8" value="Вернуть клиенту билет, если фильм ещё не начался" style="ellipse;whiteSpace=wrap;html=1;" vertex="1" parent="1">
          <mxGeometry x="475" y="460" width="115" height="80" as="geometry" />
        </mxCell>
        <mxCell id="ACFp6LXwnmqYwiIo9wma-9" value="" style="endArrow=none;html=1;rounded=0;" edge="1" parent="1">
          <mxGeometry width="50" height="50" relative="1" as="geometry">
            <mxPoint x="160" y="390" as="sourcePoint" />
            <mxPoint x="310" y="390" as="targetPoint" />
          </mxGeometry>
        </mxCell>
        <mxCell id="ACFp6LXwnmqYwiIo9wma-10" value="" style="html=1;verticalAlign=bottom;endArrow=open;dashed=1;endSize=8;curved=0;rounded=0;exitX=0.5;exitY=1;exitDx=0;exitDy=0;entryX=0.5;entryY=0;entryDx=0;entryDy=0;" edge="1" parent="1" source="ACFp6LXwnmqYwiIo9wma-3" target="ACFp6LXwnmqYwiIo9wma-4">
          <mxGeometry relative="1" as="geometry">
            <mxPoint x="520" y="370" as="sourcePoint" />
            <mxPoint x="340" y="460" as="targetPoint" />
          </mxGeometry>
        </mxCell>
        <mxCell id="ACFp6LXwnmqYwiIo9wma-11" value="expansion" style="edgeLabel;html=1;align=center;verticalAlign=middle;resizable=0;points=[];" vertex="1" connectable="0" parent="ACFp6LXwnmqYwiIo9wma-10">
          <mxGeometry x="0.0497" y="-5" relative="1" as="geometry">
            <mxPoint as="offset" />
          </mxGeometry>
        </mxCell>
        <mxCell id="ACFp6LXwnmqYwiIo9wma-12" value="" style="endArrow=none;html=1;rounded=0;" edge="1" parent="1">
          <mxGeometry width="50" height="50" relative="1" as="geometry">
            <mxPoint x="160" y="390" as="sourcePoint" />
            <mxPoint x="400" y="270" as="targetPoint" />
            <Array as="points">
              <mxPoint x="270" y="280" />
            </Array>
          </mxGeometry>
        </mxCell>
        <mxCell id="ACFp6LXwnmqYwiIo9wma-13" value="" style="endArrow=none;html=1;rounded=0;" edge="1" parent="1" target="ACFp6LXwnmqYwiIo9wma-37">
          <mxGeometry width="50" height="50" relative="1" as="geometry">
            <mxPoint x="160" y="390" as="sourcePoint" />
            <mxPoint x="410" y="580" as="targetPoint" />
            <Array as="points">
              <mxPoint x="240" y="530" />
            </Array>
          </mxGeometry>
        </mxCell>
        <mxCell id="ACFp6LXwnmqYwiIo9wma-14" value="" style="endArrow=none;html=1;rounded=0;" edge="1" parent="1">
          <mxGeometry width="50" height="50" relative="1" as="geometry">
            <mxPoint x="160" y="390" as="sourcePoint" />
            <mxPoint x="470" y="360" as="targetPoint" />
            <Array as="points">
              <mxPoint x="360" y="330" />
            </Array>
          </mxGeometry>
        </mxCell>
        <mxCell id="ACFp6LXwnmqYwiIo9wma-16" value="" style="html=1;verticalAlign=bottom;endArrow=open;dashed=1;endSize=8;curved=0;rounded=0;exitX=0.5;exitY=1;exitDx=0;exitDy=0;entryX=0.767;entryY=0.103;entryDx=0;entryDy=0;entryPerimeter=0;fillColor=#d5e8d4;strokeColor=#82b366;" edge="1" parent="1" target="ACFp6LXwnmqYwiIo9wma-3">
          <mxGeometry relative="1" as="geometry">
            <mxPoint x="455" y="290" as="sourcePoint" />
            <mxPoint x="430" y="330" as="targetPoint" />
          </mxGeometry>
        </mxCell>
        <mxCell id="ACFp6LXwnmqYwiIo9wma-17" value="include" style="edgeLabel;html=1;align=center;verticalAlign=middle;resizable=0;points=[];" vertex="1" connectable="0" parent="ACFp6LXwnmqYwiIo9wma-16">
          <mxGeometry x="0.0497" y="-5" relative="1" as="geometry">
            <mxPoint as="offset" />
          </mxGeometry>
        </mxCell>
        <mxCell id="ACFp6LXwnmqYwiIo9wma-18" value="" style="html=1;verticalAlign=bottom;endArrow=open;dashed=1;endSize=8;curved=0;rounded=0;exitX=0;exitY=0.625;exitDx=0;exitDy=0;exitPerimeter=0;fillColor=#d5e8d4;strokeColor=#82b366;" edge="1" parent="1" source="ACFp6LXwnmqYwiIo9wma-6">
          <mxGeometry relative="1" as="geometry">
            <mxPoint x="435" y="350" as="sourcePoint" />
            <mxPoint x="410" y="390" as="targetPoint" />
          </mxGeometry>
        </mxCell>
        <mxCell id="ACFp6LXwnmqYwiIo9wma-19" value="include" style="edgeLabel;html=1;align=center;verticalAlign=middle;resizable=0;points=[];" vertex="1" connectable="0" parent="ACFp6LXwnmqYwiIo9wma-18">
          <mxGeometry x="0.0497" y="-5" relative="1" as="geometry">
            <mxPoint as="offset" />
          </mxGeometry>
        </mxCell>
        <mxCell id="ACFp6LXwnmqYwiIo9wma-20" value="`" style="edgeLabel;html=1;align=center;verticalAlign=middle;resizable=0;points=[];" vertex="1" connectable="0" parent="ACFp6LXwnmqYwiIo9wma-18">
          <mxGeometry x="-0.1459" relative="1" as="geometry">
            <mxPoint as="offset" />
          </mxGeometry>
        </mxCell>
        <mxCell id="ACFp6LXwnmqYwiIo9wma-21" value="" style="html=1;verticalAlign=bottom;endArrow=open;dashed=1;endSize=8;curved=0;rounded=0;exitX=0.232;exitY=0.083;exitDx=0;exitDy=0;exitPerimeter=0;entryX=0.938;entryY=0.753;entryDx=0;entryDy=0;entryPerimeter=0;fillColor=#d5e8d4;strokeColor=#82b366;" edge="1" parent="1" source="ACFp6LXwnmqYwiIo9wma-8" target="ACFp6LXwnmqYwiIo9wma-3">
          <mxGeometry relative="1" as="geometry">
            <mxPoint x="490" y="390" as="sourcePoint" />
            <mxPoint x="420" y="400" as="targetPoint" />
          </mxGeometry>
        </mxCell>
        <mxCell id="ACFp6LXwnmqYwiIo9wma-22" value="include" style="edgeLabel;html=1;align=center;verticalAlign=middle;resizable=0;points=[];" vertex="1" connectable="0" parent="ACFp6LXwnmqYwiIo9wma-21">
          <mxGeometry x="0.0497" y="-5" relative="1" as="geometry">
            <mxPoint as="offset" />
          </mxGeometry>
        </mxCell>
        <mxCell id="ACFp6LXwnmqYwiIo9wma-23" value="`" style="edgeLabel;html=1;align=center;verticalAlign=middle;resizable=0;points=[];" vertex="1" connectable="0" parent="ACFp6LXwnmqYwiIo9wma-21">
          <mxGeometry x="-0.1459" relative="1" as="geometry">
            <mxPoint as="offset" />
          </mxGeometry>
        </mxCell>
        <mxCell id="ACFp6LXwnmqYwiIo9wma-24" value="" style="html=1;verticalAlign=bottom;endArrow=open;dashed=1;endSize=8;curved=0;rounded=0;exitX=0.538;exitY=-0.08;exitDx=0;exitDy=0;exitPerimeter=0;entryX=0.938;entryY=0.753;entryDx=0;entryDy=0;entryPerimeter=0;fillColor=#d5e8d4;strokeColor=#82b366;" edge="1" parent="1" source="ACFp6LXwnmqYwiIo9wma-7">
          <mxGeometry relative="1" as="geometry">
            <mxPoint x="480" y="482" as="sourcePoint" />
            <mxPoint x="382" y="420" as="targetPoint" />
          </mxGeometry>
        </mxCell>
        <mxCell id="ACFp6LXwnmqYwiIo9wma-25" value="include" style="edgeLabel;html=1;align=center;verticalAlign=middle;resizable=0;points=[];" vertex="1" connectable="0" parent="ACFp6LXwnmqYwiIo9wma-24">
          <mxGeometry x="0.0497" y="-5" relative="1" as="geometry">
            <mxPoint as="offset" />
          </mxGeometry>
        </mxCell>
        <mxCell id="ACFp6LXwnmqYwiIo9wma-26" value="`" style="edgeLabel;html=1;align=center;verticalAlign=middle;resizable=0;points=[];" vertex="1" connectable="0" parent="ACFp6LXwnmqYwiIo9wma-24">
          <mxGeometry x="-0.1459" relative="1" as="geometry">
            <mxPoint as="offset" />
          </mxGeometry>
        </mxCell>
        <mxCell id="ACFp6LXwnmqYwiIo9wma-27" value="Сотрудник-контроллёр" style="shape=umlActor;verticalLabelPosition=bottom;verticalAlign=top;html=1;" vertex="1" parent="1">
          <mxGeometry x="50" y="480" width="30" height="60" as="geometry" />
        </mxCell>
        <mxCell id="ACFp6LXwnmqYwiIo9wma-28" value="" style="endArrow=block;endSize=16;endFill=0;html=1;rounded=0;exitX=0.5;exitY=0;exitDx=0;exitDy=0;exitPerimeter=0;" edge="1" parent="1" source="ACFp6LXwnmqYwiIo9wma-27">
          <mxGeometry width="160" relative="1" as="geometry">
            <mxPoint x="135" y="280" as="sourcePoint" />
            <mxPoint x="110" y="430" as="targetPoint" />
          </mxGeometry>
        </mxCell>
        <mxCell id="ACFp6LXwnmqYwiIo9wma-30" value="Отметить место вошеднего посетителя, как занятое" style="ellipse;whiteSpace=wrap;html=1;align=center;" vertex="1" parent="1">
          <mxGeometry x="300" y="170" width="140" height="60" as="geometry" />
        </mxCell>
        <mxCell id="ACFp6LXwnmqYwiIo9wma-34" value="" style="html=1;verticalAlign=bottom;endArrow=open;dashed=1;endSize=8;curved=0;rounded=0;exitX=0.5;exitY=1;exitDx=0;exitDy=0;entryX=0.413;entryY=0.02;entryDx=0;entryDy=0;entryPerimeter=0;fillColor=#d5e8d4;strokeColor=#82b366;" edge="1" parent="1" source="ACFp6LXwnmqYwiIo9wma-30" target="ACFp6LXwnmqYwiIo9wma-3">
          <mxGeometry relative="1" as="geometry">
            <mxPoint x="465" y="300" as="sourcePoint" />
            <mxPoint x="399" y="376" as="targetPoint" />
          </mxGeometry>
        </mxCell>
        <mxCell id="ACFp6LXwnmqYwiIo9wma-35" value="include" style="edgeLabel;html=1;align=center;verticalAlign=middle;resizable=0;points=[];" vertex="1" connectable="0" parent="ACFp6LXwnmqYwiIo9wma-34">
          <mxGeometry x="0.0497" y="-5" relative="1" as="geometry">
            <mxPoint as="offset" />
          </mxGeometry>
        </mxCell>
        <mxCell id="ACFp6LXwnmqYwiIo9wma-36" value="" style="endArrow=none;html=1;rounded=0;" edge="1" parent="1">
          <mxGeometry width="50" height="50" relative="1" as="geometry">
            <mxPoint x="160" y="390" as="sourcePoint" />
            <mxPoint x="320" y="230" as="targetPoint" />
            <Array as="points">
              <mxPoint x="230" y="260" />
            </Array>
          </mxGeometry>
        </mxCell>
        <mxCell id="ACFp6LXwnmqYwiIo9wma-37" value="&lt;font style=&quot;font-size: 12px;&quot;&gt;Отметить место, как забронированное&lt;/font&gt;" style="ellipse;whiteSpace=wrap;html=1;align=center;" vertex="1" parent="1">
          <mxGeometry x="360" y="710" width="129" height="60" as="geometry" />
        </mxCell>
        <mxCell id="ACFp6LXwnmqYwiIo9wma-39" value="include" style="endArrow=open;endSize=12;dashed=1;html=1;rounded=0;exitX=0.5;exitY=0;exitDx=0;exitDy=0;" edge="1" parent="1" source="ACFp6LXwnmqYwiIo9wma-37" target="ACFp6LXwnmqYwiIo9wma-7">
          <mxGeometry width="160" relative="1" as="geometry">
            <mxPoint x="280" y="520" as="sourcePoint" />
            <mxPoint x="440" y="520" as="targetPoint" />
          </mxGeometry>
        </mxCell>
        <mxCell id="ACFp6LXwnmqYwiIo9wma-40" value="Снять бронирование с места" style="ellipse;whiteSpace=wrap;html=1;" vertex="1" parent="1">
          <mxGeometry x="570" y="585" width="90" height="60" as="geometry" />
        </mxCell>
        <mxCell id="ACFp6LXwnmqYwiIo9wma-41" value="include" style="endArrow=open;endSize=12;dashed=1;html=1;rounded=0;exitX=0.21;exitY=0.028;exitDx=0;exitDy=0;exitPerimeter=0;" edge="1" parent="1" source="ACFp6LXwnmqYwiIo9wma-40" target="ACFp6LXwnmqYwiIo9wma-8">
          <mxGeometry width="160" relative="1" as="geometry">
            <mxPoint x="455" y="690" as="sourcePoint" />
            <mxPoint x="458" y="640" as="targetPoint" />
          </mxGeometry>
        </mxCell>
        <mxCell id="ACFp6LXwnmqYwiIo9wma-44" value="" style="endArrow=none;html=1;rounded=0;entryX=0;entryY=0;entryDx=0;entryDy=0;" edge="1" parent="1" target="ACFp6LXwnmqYwiIo9wma-40">
          <mxGeometry width="50" height="50" relative="1" as="geometry">
            <mxPoint x="160" y="390" as="sourcePoint" />
            <mxPoint x="425" y="733" as="targetPoint" />
            <Array as="points">
              <mxPoint x="290" y="530" />
            </Array>
          </mxGeometry>
        </mxCell>
        <mxCell id="ACFp6LXwnmqYwiIo9wma-46" value="" style="endArrow=none;html=1;rounded=0;fillColor=#ffe6cc;strokeColor=#d79b00;" edge="1" parent="1">
          <mxGeometry relative="1" as="geometry">
            <mxPoint x="180" y="820" as="sourcePoint" />
            <mxPoint x="180" y="820" as="targetPoint" />
            <Array as="points">
              <mxPoint x="180" y="130" />
              <mxPoint x="710" y="130" />
              <mxPoint x="710" y="820" />
            </Array>
          </mxGeometry>
        </mxCell>
        <mxCell id="ACFp6LXwnmqYwiIo9wma-47" value="Система" style="shape=umlActor;verticalLabelPosition=bottom;verticalAlign=top;html=1;outlineConnect=0;" vertex="1" parent="1">
          <mxGeometry x="780" y="350" width="30" height="60" as="geometry" />
        </mxCell>
        <mxCell id="ACFp6LXwnmqYwiIo9wma-48" value="" style="endArrow=none;html=1;rounded=0;" edge="1" parent="1">
          <mxGeometry width="50" height="50" relative="1" as="geometry">
            <mxPoint x="490" y="730" as="sourcePoint" />
            <mxPoint x="770" y="410" as="targetPoint" />
            <Array as="points">
              <mxPoint x="690" y="680" />
            </Array>
          </mxGeometry>
        </mxCell>
        <mxCell id="ACFp6LXwnmqYwiIo9wma-50" value="" style="endArrow=none;html=1;rounded=0;" edge="1" parent="1">
          <mxGeometry width="50" height="50" relative="1" as="geometry">
            <mxPoint x="650" y="590" as="sourcePoint" />
            <mxPoint x="760" y="410" as="targetPoint" />
          </mxGeometry>
        </mxCell>
        <mxCell id="ACFp6LXwnmqYwiIo9wma-51" value="" style="endArrow=none;html=1;rounded=0;" edge="1" parent="1">
          <mxGeometry width="50" height="50" relative="1" as="geometry">
            <mxPoint x="600" y="370" as="sourcePoint" />
            <mxPoint x="760" y="390" as="targetPoint" />
          </mxGeometry>
        </mxCell>
        <mxCell id="ACFp6LXwnmqYwiIo9wma-52" value="" style="endArrow=none;html=1;rounded=0;" edge="1" parent="1">
          <mxGeometry width="50" height="50" relative="1" as="geometry">
            <mxPoint x="520" y="270" as="sourcePoint" />
            <mxPoint x="770" y="380" as="targetPoint" />
          </mxGeometry>
        </mxCell>
        <mxCell id="ACFp6LXwnmqYwiIo9wma-53" value="" style="endArrow=none;html=1;rounded=0;" edge="1" parent="1">
          <mxGeometry width="50" height="50" relative="1" as="geometry">
            <mxPoint x="450" y="200" as="sourcePoint" />
            <mxPoint x="770" y="370" as="targetPoint" />
            <Array as="points">
              <mxPoint x="630" y="270" />
            </Array>
          </mxGeometry>
        </mxCell>
        <mxCell id="ACFp6LXwnmqYwiIo9wma-54" value="Отобразить свободные места на сеанс" style="ellipse;whiteSpace=wrap;html=1;" vertex="1" parent="1">
          <mxGeometry x="540" y="730" width="110" height="70" as="geometry" />
        </mxCell>
        <mxCell id="ACFp6LXwnmqYwiIo9wma-57" value="expansion" style="endArrow=open;endSize=12;dashed=1;html=1;rounded=0;exitX=0.924;exitY=0.744;exitDx=0;exitDy=0;exitPerimeter=0;" edge="1" parent="1" source="ACFp6LXwnmqYwiIo9wma-7" target="ACFp6LXwnmqYwiIo9wma-54">
          <mxGeometry width="160" relative="1" as="geometry">
            <mxPoint x="540" y="620" as="sourcePoint" />
            <mxPoint x="700" y="620" as="targetPoint" />
          </mxGeometry>
        </mxCell>
      </root>
    </mxGraphModel>
  </diagram>
</mxfile>
